<?xml version="1.0" encoding="UTF-8"?>
<svg version="1.1" xmlns="http://www.w3.org/2000/svg" width="327" height="253">
<path d="M0 0 C0.7017334 0.31163086 1.4034668 0.62326172 2.12646484 0.94433594 C17.7341734 7.99972201 32.16704511 17.67908511 45 29 C45.49725586 29.43699219 45.99451172 29.87398437 46.50683594 30.32421875 C52.76262073 35.84880792 58.79957228 41.44853332 64 48 C64.42748535 48.53157715 64.8549707 49.0631543 65.29541016 49.61083984 C94.01991505 85.58694564 105.7744261 129.79370566 100.875 175.4375 C98.56180513 195.21409264 94.66205197 218.27104616 85 236 C81.47857737 234.69280523 78.23896469 233.07316844 74.93994141 231.28393555 C47.83091052 216.83556583 12.83775937 212.11161775 -17 219 C-17.99 219.33 -18.98 219.66 -20 220 C-25.45187508 214.33581825 -29.22986646 208.50534871 -32.75 201.5 C-33.26167725 200.49807617 -33.77335449 199.49615234 -34.30053711 198.46386719 C-46.8398745 173.67469534 -57.38725353 148.04762506 -67 122 C-67.45697266 120.76620605 -67.91394531 119.53241211 -68.38476562 118.26123047 C-75.60451126 98.4556389 -75.60451126 98.4556389 -75 91 C-69.48762319 93.8383512 -64.31302076 97.08146557 -59.1875 100.5625 C-25.75712366 123.14758462 11.16146293 144.05094257 52.890625 136.35522461 C58.33976536 135.25994232 63.55704685 133.68675171 68.77734375 131.76953125 C71 131 71 131 73 131 C68.60484827 107.89653795 58.22382567 89.90664661 42 73 C41.19304687 72.12988281 40.38609375 71.25976562 39.5546875 70.36328125 C8.7124061 38.09396892 -38.157387 19.86794737 -82.3059082 18.0234375 C-121.65169591 17.15417461 -159.87814042 28.67486837 -191 53 C-191.93714844 53.72703125 -192.87429687 54.4540625 -193.83984375 55.203125 C-199.02474133 59.33914086 -203.98012083 63.71546421 -208.875 68.1875 C-209.67852905 68.91815674 -209.67852905 68.91815674 -210.49829102 69.66357422 C-213.98374288 72.89260618 -217.02475208 76.29466357 -220 80 C-220.66 79.34 -221.32 78.68 -222 78 C-220.85041081 60.00071785 -200.96096079 39.2599848 -189 27 C-188.360625 26.29875 -187.72125 25.5975 -187.0625 24.875 C-164.85023447 1.13085409 -131.54299065 -11.56943318 -100 -16 C-99.10023437 -16.13148437 -98.20046875 -16.26296875 -97.2734375 -16.3984375 C-64.02039459 -20.30435048 -30.33797749 -13.55457261 0 0 Z " fill="#FDD10F" transform="translate(225,17)"/>
<path d="M0 0 C0.60682617 0.32081543 1.21365234 0.64163086 1.83886719 0.97216797 C14.97045497 7.94898835 26.21321343 16.79535747 37 27 C37.89460937 27.83015625 38.78921875 28.6603125 39.7109375 29.515625 C50.16028666 39.52592588 59.30705186 51.59999211 65 65 C64.67 65.66 64.34 66.32 64 67 C63.61779297 66.5875 63.23558594 66.175 62.84179688 65.75 C52.68352787 54.79716122 42.72248845 44.31169391 31 35 C29.90327992 34.11243112 28.80693735 33.22439559 27.7109375 32.3359375 C-11.26015681 0.95213589 -58.47436441 -18.80240822 -109.1953125 -13.53515625 C-145.05075808 -8.91576558 -178.97222171 9.32181022 -205 34 C-206.45154775 35.2992875 -207.90955941 36.59140241 -209.375 37.875 C-209.98085937 38.40867188 -210.58671875 38.94234375 -211.2109375 39.4921875 C-213.08755271 41.07378896 -215.0234765 42.54590562 -217 44 C-210.7527253 30.32437379 -196.81129213 17.93357437 -185 9 C-183.96488281 8.19949219 -182.92976563 7.39898437 -181.86328125 6.57421875 C-128.79613459 -33.5493392 -56.76447221 -30.57574573 0 0 Z " fill="#0E2449" transform="translate(236,30)"/>
<path d="M0 0 C4.93026057 2.19208153 8.85955882 4.90059001 11.875 9.4375 C12.95032851 12.41833292 12.98237521 14.16255621 12.875 17.4375 C11.19955474 20.70461826 10.39156699 21.265311 6.875 22.4375 C-1.72969795 23.02086935 -8.31879043 20.71231242 -15.125 15.4375 C-15.125 14.7775 -15.125 14.1175 -15.125 13.4375 C-15.785 13.4375 -16.445 13.4375 -17.125 13.4375 C-20.28254923 7.36528993 -20.28254923 7.36528993 -19.5625 3.125 C-15.7065002 -4.0840431 -6.56931841 -2.33330974 0 0 Z " fill="#FCD71D" transform="translate(61.125,108.5625)"/>
<path d="M0 0 C4.93026057 2.19208153 8.85955882 4.90059001 11.875 9.4375 C12.95032851 12.41833292 12.98237521 14.16255621 12.875 17.4375 C11.19955474 20.70461826 10.39156699 21.265311 6.875 22.4375 C-1.72969795 23.02086935 -8.31879043 20.71231242 -15.125 15.4375 C-15.125 14.7775 -15.125 14.1175 -15.125 13.4375 C-15.785 13.4375 -16.445 13.4375 -17.125 13.4375 C-20.28254923 7.36528993 -20.28254923 7.36528993 -19.5625 3.125 C-15.7065002 -4.0840431 -6.56931841 -2.33330974 0 0 Z " fill="#FCD71D" transform="translate(26.125,96.5625)"/>
<path d="M0 0 C4.93026057 2.19208153 8.85955882 4.90059001 11.875 9.4375 C12.95032851 12.41833292 12.98237521 14.16255621 12.875 17.4375 C11.19955474 20.70461826 10.39156699 21.265311 6.875 22.4375 C-1.72969795 23.02086935 -8.31879043 20.71231242 -15.125 15.4375 C-15.125 14.7775 -15.125 14.1175 -15.125 13.4375 C-15.785 13.4375 -16.445 13.4375 -17.125 13.4375 C-20.28254923 7.36528993 -20.28254923 7.36528993 -19.5625 3.125 C-15.7065002 -4.0840431 -6.56931841 -2.33330974 0 0 Z " fill="#FCD71D" transform="translate(77.125,91.5625)"/>
<path d="M0 0 C4.93026057 2.19208153 8.85955882 4.90059001 11.875 9.4375 C12.95032851 12.41833292 12.98237521 14.16255621 12.875 17.4375 C11.19955474 20.70461826 10.39156699 21.265311 6.875 22.4375 C-1.72969795 23.02086935 -8.31879043 20.71231242 -15.125 15.4375 C-15.125 14.7775 -15.125 14.1175 -15.125 13.4375 C-15.785 13.4375 -16.445 13.4375 -17.125 13.4375 C-20.28254923 7.36528993 -20.28254923 7.36528993 -19.5625 3.125 C-15.7065002 -4.0840431 -6.56931841 -2.33330974 0 0 Z " fill="#FCD71D" transform="translate(42.125,78.5625)"/>
<path d="M0 0 C4.93026057 2.19208153 8.85955882 4.90059001 11.875 9.4375 C12.95032851 12.41833292 12.98237521 14.16255621 12.875 17.4375 C11.19955474 20.70461826 10.39156699 21.265311 6.875 22.4375 C-1.72969795 23.02086935 -8.31879043 20.71231242 -15.125 15.4375 C-15.125 14.7775 -15.125 14.1175 -15.125 13.4375 C-15.785 13.4375 -16.445 13.4375 -17.125 13.4375 C-20.28254923 7.36528993 -20.28254923 7.36528993 -19.5625 3.125 C-15.7065002 -4.0840431 -6.56931841 -2.33330974 0 0 Z " fill="#FCD71D" transform="translate(64.125,62.5625)"/>
<path d="M0 0 C0.33 0.99 0.66 1.98 1 3 C3.50447516 4.21869929 3.50447516 4.21869929 6 5 C6 7.31 6 9.62 6 12 C6.66 11.67 7.32 11.34 8 11 C7.7525 9.6078125 7.7525 9.6078125 7.5 8.1875 C7 5 7 5 7 2 C10.0563847 4.36623332 11.32162471 6.24875962 11.9375 10 C12.16553341 12.84776607 12.08865233 13.82712795 10.75 16.4375 C7.94907275 18.93832791 5.40876796 19.12145521 1.8125 19.0625 C-0.0746875 19.0315625 -0.0746875 19.0315625 -2 19 C-2 18.67 -2 18.34 -2 18 C-0.95199219 17.83564453 -0.95199219 17.83564453 0.1171875 17.66796875 C1.02726562 17.50941406 1.93734375 17.35085937 2.875 17.1875 C3.77992187 17.03667969 4.68484375 16.88585937 5.6171875 16.73046875 C8.34412478 16.16948699 8.34412478 16.16948699 10 13 C8.824375 13.2784375 8.824375 13.2784375 7.625 13.5625 C5 14 5 14 3 13 C3 13.66 3 14.32 3 15 C0.625 14.75 0.625 14.75 -2 14 C-3.3125 11.9375 -3.3125 11.9375 -4 10 C-4.99 10 -5.98 10 -7 10 C-7 10.66 -7 11.32 -7 12 C-10.875 11.125 -10.875 11.125 -12 10 C-12.04063832 8.33382885 -12.042721 6.66611905 -12 5 C-12.66 4.67 -13.32 4.34 -14 4 C-14 2.68 -14 1.36 -14 0 C-8.97874074 -0.77916092 -5.02296004 -1.13016601 0 0 Z " fill="#EACA29" transform="translate(62,112)"/>
<path d="M0 0 C0.33 0.99 0.66 1.98 1 3 C3.50447516 4.21869929 3.50447516 4.21869929 6 5 C6 7.31 6 9.62 6 12 C6.66 11.67 7.32 11.34 8 11 C7.7525 9.6078125 7.7525 9.6078125 7.5 8.1875 C7 5 7 5 7 2 C10.0563847 4.36623332 11.32162471 6.24875962 11.9375 10 C12.16553341 12.84776607 12.08865233 13.82712795 10.75 16.4375 C7.94907275 18.93832791 5.40876796 19.12145521 1.8125 19.0625 C-0.0746875 19.0315625 -0.0746875 19.0315625 -2 19 C-2 18.67 -2 18.34 -2 18 C-0.95199219 17.83564453 -0.95199219 17.83564453 0.1171875 17.66796875 C1.02726562 17.50941406 1.93734375 17.35085937 2.875 17.1875 C3.77992187 17.03667969 4.68484375 16.88585937 5.6171875 16.73046875 C8.34412478 16.16948699 8.34412478 16.16948699 10 13 C8.824375 13.2784375 8.824375 13.2784375 7.625 13.5625 C5 14 5 14 3 13 C3 13.66 3 14.32 3 15 C0.625 14.75 0.625 14.75 -2 14 C-3.3125 11.9375 -3.3125 11.9375 -4 10 C-4.99 10 -5.98 10 -7 10 C-7 10.66 -7 11.32 -7 12 C-10.875 11.125 -10.875 11.125 -12 10 C-12.04063832 8.33382885 -12.042721 6.66611905 -12 5 C-12.66 4.67 -13.32 4.34 -14 4 C-14 2.68 -14 1.36 -14 0 C-8.97874074 -0.77916092 -5.02296004 -1.13016601 0 0 Z " fill="#EACA29" transform="translate(27,100)"/>
<path d="M0 0 C0.33 0.99 0.66 1.98 1 3 C3.50447516 4.21869929 3.50447516 4.21869929 6 5 C6 7.31 6 9.62 6 12 C6.66 11.67 7.32 11.34 8 11 C7.7525 9.6078125 7.7525 9.6078125 7.5 8.1875 C7 5 7 5 7 2 C10.0563847 4.36623332 11.32162471 6.24875962 11.9375 10 C12.16553341 12.84776607 12.08865233 13.82712795 10.75 16.4375 C7.94907275 18.93832791 5.40876796 19.12145521 1.8125 19.0625 C-0.0746875 19.0315625 -0.0746875 19.0315625 -2 19 C-2 18.67 -2 18.34 -2 18 C-0.95199219 17.83564453 -0.95199219 17.83564453 0.1171875 17.66796875 C1.02726562 17.50941406 1.93734375 17.35085937 2.875 17.1875 C3.77992187 17.03667969 4.68484375 16.88585937 5.6171875 16.73046875 C8.34412478 16.16948699 8.34412478 16.16948699 10 13 C8.824375 13.2784375 8.824375 13.2784375 7.625 13.5625 C5 14 5 14 3 13 C3 13.66 3 14.32 3 15 C0.625 14.75 0.625 14.75 -2 14 C-3.3125 11.9375 -3.3125 11.9375 -4 10 C-4.99 10 -5.98 10 -7 10 C-7 10.66 -7 11.32 -7 12 C-10.875 11.125 -10.875 11.125 -12 10 C-12.04063832 8.33382885 -12.042721 6.66611905 -12 5 C-12.66 4.67 -13.32 4.34 -14 4 C-14 2.68 -14 1.36 -14 0 C-8.97874074 -0.77916092 -5.02296004 -1.13016601 0 0 Z " fill="#EACA29" transform="translate(78,95)"/>
<path d="M0 0 C0.33 0.99 0.66 1.98 1 3 C3.50447516 4.21869929 3.50447516 4.21869929 6 5 C6 7.31 6 9.62 6 12 C6.66 11.67 7.32 11.34 8 11 C7.7525 9.6078125 7.7525 9.6078125 7.5 8.1875 C7 5 7 5 7 2 C10.0563847 4.36623332 11.32162471 6.24875962 11.9375 10 C12.16553341 12.84776607 12.08865233 13.82712795 10.75 16.4375 C7.94907275 18.93832791 5.40876796 19.12145521 1.8125 19.0625 C-0.0746875 19.0315625 -0.0746875 19.0315625 -2 19 C-2 18.67 -2 18.34 -2 18 C-0.95199219 17.83564453 -0.95199219 17.83564453 0.1171875 17.66796875 C1.02726562 17.50941406 1.93734375 17.35085937 2.875 17.1875 C3.77992187 17.03667969 4.68484375 16.88585937 5.6171875 16.73046875 C8.34412478 16.16948699 8.34412478 16.16948699 10 13 C8.824375 13.2784375 8.824375 13.2784375 7.625 13.5625 C5 14 5 14 3 13 C3 13.66 3 14.32 3 15 C0.625 14.75 0.625 14.75 -2 14 C-3.3125 11.9375 -3.3125 11.9375 -4 10 C-4.99 10 -5.98 10 -7 10 C-7 10.66 -7 11.32 -7 12 C-10.875 11.125 -10.875 11.125 -12 10 C-12.04063832 8.33382885 -12.042721 6.66611905 -12 5 C-12.66 4.67 -13.32 4.34 -14 4 C-14 2.68 -14 1.36 -14 0 C-8.97874074 -0.77916092 -5.02296004 -1.13016601 0 0 Z " fill="#EACA29" transform="translate(43,82)"/>
<path d="M0 0 C0.33 0.99 0.66 1.98 1 3 C3.50447516 4.21869929 3.50447516 4.21869929 6 5 C6 7.31 6 9.62 6 12 C6.66 11.67 7.32 11.34 8 11 C7.7525 9.6078125 7.7525 9.6078125 7.5 8.1875 C7 5 7 5 7 2 C10.0563847 4.36623332 11.32162471 6.24875962 11.9375 10 C12.16553341 12.84776607 12.08865233 13.82712795 10.75 16.4375 C7.94907275 18.93832791 5.40876796 19.12145521 1.8125 19.0625 C-0.0746875 19.0315625 -0.0746875 19.0315625 -2 19 C-2 18.67 -2 18.34 -2 18 C-0.95199219 17.83564453 -0.95199219 17.83564453 0.1171875 17.66796875 C1.02726562 17.50941406 1.93734375 17.35085937 2.875 17.1875 C3.77992187 17.03667969 4.68484375 16.88585937 5.6171875 16.73046875 C8.34412478 16.16948699 8.34412478 16.16948699 10 13 C8.824375 13.2784375 8.824375 13.2784375 7.625 13.5625 C5 14 5 14 3 13 C3 13.66 3 14.32 3 15 C0.625 14.75 0.625 14.75 -2 14 C-3.3125 11.9375 -3.3125 11.9375 -4 10 C-4.99 10 -5.98 10 -7 10 C-7 10.66 -7 11.32 -7 12 C-10.875 11.125 -10.875 11.125 -12 10 C-12.04063832 8.33382885 -12.042721 6.66611905 -12 5 C-12.66 4.67 -13.32 4.34 -14 4 C-14 2.68 -14 1.36 -14 0 C-8.97874074 -0.77916092 -5.02296004 -1.13016601 0 0 Z " fill="#EACA29" transform="translate(65,66)"/>
<path d="M0 0 C4.21878192 -0.19622241 7.17010894 0.19769832 11 2 C10.01 2.495 10.01 2.495 9 3 C10.1375562 5.59141286 10.1375562 5.59141286 12 8 C14.62694422 8.41780879 14.62694422 8.41780879 17 8 C17 8.66 17 9.32 17 10 C17.66 10 18.32 10 19 10 C19 10.66 19 11.32 19 12 C17.68 12 16.36 12 15 12 C15.33 12.66 15.66 13.32 16 14 C14.35 13.67 12.7 13.34 11 13 C10.67 12.01 10.34 11.02 10 10 C9.01 10 8.02 10 7 10 C7 10.66 7 11.32 7 12 C3.125 11.125 3.125 11.125 2 10 C1.95936168 8.33382885 1.957279 6.66611905 2 5 C1.34 4.67 0.68 4.34 0 4 C0 2.68 0 1.36 0 0 Z " fill="#706C3A" transform="translate(48,112)"/>
<path d="M0 0 C4.21878192 -0.19622241 7.17010894 0.19769832 11 2 C10.01 2.495 10.01 2.495 9 3 C10.1375562 5.59141286 10.1375562 5.59141286 12 8 C14.62694422 8.41780879 14.62694422 8.41780879 17 8 C17 8.66 17 9.32 17 10 C17.66 10 18.32 10 19 10 C19 10.66 19 11.32 19 12 C17.68 12 16.36 12 15 12 C15.33 12.66 15.66 13.32 16 14 C14.35 13.67 12.7 13.34 11 13 C10.67 12.01 10.34 11.02 10 10 C9.01 10 8.02 10 7 10 C7 10.66 7 11.32 7 12 C3.125 11.125 3.125 11.125 2 10 C1.95936168 8.33382885 1.957279 6.66611905 2 5 C1.34 4.67 0.68 4.34 0 4 C0 2.68 0 1.36 0 0 Z " fill="#706C3A" transform="translate(13,100)"/>
<path d="M0 0 C4.21878192 -0.19622241 7.17010894 0.19769832 11 2 C10.01 2.495 10.01 2.495 9 3 C10.1375562 5.59141286 10.1375562 5.59141286 12 8 C14.62694422 8.41780879 14.62694422 8.41780879 17 8 C17 8.66 17 9.32 17 10 C17.66 10 18.32 10 19 10 C19 10.66 19 11.32 19 12 C17.68 12 16.36 12 15 12 C15.33 12.66 15.66 13.32 16 14 C14.35 13.67 12.7 13.34 11 13 C10.67 12.01 10.34 11.02 10 10 C9.01 10 8.02 10 7 10 C7 10.66 7 11.32 7 12 C3.125 11.125 3.125 11.125 2 10 C1.95936168 8.33382885 1.957279 6.66611905 2 5 C1.34 4.67 0.68 4.34 0 4 C0 2.68 0 1.36 0 0 Z " fill="#706C3A" transform="translate(64,95)"/>
<path d="M0 0 C4.21878192 -0.19622241 7.17010894 0.19769832 11 2 C10.01 2.495 10.01 2.495 9 3 C10.1375562 5.59141286 10.1375562 5.59141286 12 8 C14.62694422 8.41780879 14.62694422 8.41780879 17 8 C17 8.66 17 9.32 17 10 C17.66 10 18.32 10 19 10 C19 10.66 19 11.32 19 12 C17.68 12 16.36 12 15 12 C15.33 12.66 15.66 13.32 16 14 C14.35 13.67 12.7 13.34 11 13 C10.67 12.01 10.34 11.02 10 10 C9.01 10 8.02 10 7 10 C7 10.66 7 11.32 7 12 C3.125 11.125 3.125 11.125 2 10 C1.95936168 8.33382885 1.957279 6.66611905 2 5 C1.34 4.67 0.68 4.34 0 4 C0 2.68 0 1.36 0 0 Z " fill="#706C3A" transform="translate(29,82)"/>
<path d="M0 0 C4.21878192 -0.19622241 7.17010894 0.19769832 11 2 C10.01 2.495 10.01 2.495 9 3 C10.1375562 5.59141286 10.1375562 5.59141286 12 8 C14.62694422 8.41780879 14.62694422 8.41780879 17 8 C17 8.66 17 9.32 17 10 C17.66 10 18.32 10 19 10 C19 10.66 19 11.32 19 12 C17.68 12 16.36 12 15 12 C15.33 12.66 15.66 13.32 16 14 C14.35 13.67 12.7 13.34 11 13 C10.67 12.01 10.34 11.02 10 10 C9.01 10 8.02 10 7 10 C7 10.66 7 11.32 7 12 C3.125 11.125 3.125 11.125 2 10 C1.95936168 8.33382885 1.957279 6.66611905 2 5 C1.34 4.67 0.68 4.34 0 4 C0 2.68 0 1.36 0 0 Z " fill="#706C3A" transform="translate(51,66)"/>
<path d="M0 0 C4.21878192 -0.19622241 7.17010894 0.19769832 11 2 C11 1.34 11 0.68 11 0 C13.31 0 15.62 0 18 0 C17.3125 1.9375 17.3125 1.9375 16 4 C11.77786104 5.53532326 6.45391964 5.51626966 2 5 C1.34 4.34 0.68 3.68 0 3 C0 2.01 0 1.02 0 0 Z " fill="#FED91A" transform="translate(54,125)"/>
<path d="M0 0 C4.21878192 -0.19622241 7.17010894 0.19769832 11 2 C11 1.34 11 0.68 11 0 C13.31 0 15.62 0 18 0 C17.3125 1.9375 17.3125 1.9375 16 4 C11.77786104 5.53532326 6.45391964 5.51626966 2 5 C1.34 4.34 0.68 3.68 0 3 C0 2.01 0 1.02 0 0 Z " fill="#FED91A" transform="translate(19,113)"/>
<path d="M0 0 C4.21878192 -0.19622241 7.17010894 0.19769832 11 2 C11 1.34 11 0.68 11 0 C13.31 0 15.62 0 18 0 C17.3125 1.9375 17.3125 1.9375 16 4 C11.77786104 5.53532326 6.45391964 5.51626966 2 5 C1.34 4.34 0.68 3.68 0 3 C0 2.01 0 1.02 0 0 Z " fill="#FED91A" transform="translate(70,108)"/>
<path d="M0 0 C4.21878192 -0.19622241 7.17010894 0.19769832 11 2 C11 1.34 11 0.68 11 0 C13.31 0 15.62 0 18 0 C17.3125 1.9375 17.3125 1.9375 16 4 C11.77786104 5.53532326 6.45391964 5.51626966 2 5 C1.34 4.34 0.68 3.68 0 3 C0 2.01 0 1.02 0 0 Z " fill="#FED91A" transform="translate(35,95)"/>
<path d="M0 0 C4.21878192 -0.19622241 7.17010894 0.19769832 11 2 C11 1.34 11 0.68 11 0 C13.31 0 15.62 0 18 0 C17.3125 1.9375 17.3125 1.9375 16 4 C11.77786104 5.53532326 6.45391964 5.51626966 2 5 C1.34 4.34 0.68 3.68 0 3 C0 2.01 0 1.02 0 0 Z " fill="#FED91A" transform="translate(57,79)"/>
<path d="M0 0 C3.125 0.375 3.125 0.375 6 1 C6.33 1.99 6.66 2.98 7 4 C9.01508358 4.73323796 9.01508358 4.73323796 11 5 C11 5.66 11 6.32 11 7 C10.01 7.495 10.01 7.495 9 8 C9 8.33 9 8.66 9 9 C7.02 9.33 5.04 9.66 3 10 C1 7 1 7 1.375 4.8125 C1.58125 4.214375 1.7875 3.61625 2 3 C0.68 2.67 -0.64 2.34 -2 2 C-1.34 1.34 -0.68 0.68 0 0 Z " fill="#D0B731" transform="translate(56,111)"/>
<path d="M0 0 C3.125 0.375 3.125 0.375 6 1 C6.33 1.99 6.66 2.98 7 4 C9.01508358 4.73323796 9.01508358 4.73323796 11 5 C11 5.66 11 6.32 11 7 C10.01 7.495 10.01 7.495 9 8 C9 8.33 9 8.66 9 9 C7.02 9.33 5.04 9.66 3 10 C1 7 1 7 1.375 4.8125 C1.58125 4.214375 1.7875 3.61625 2 3 C0.68 2.67 -0.64 2.34 -2 2 C-1.34 1.34 -0.68 0.68 0 0 Z " fill="#D0B731" transform="translate(21,99)"/>
<path d="M0 0 C3.125 0.375 3.125 0.375 6 1 C6.33 1.99 6.66 2.98 7 4 C9.01508358 4.73323796 9.01508358 4.73323796 11 5 C11 5.66 11 6.32 11 7 C10.01 7.495 10.01 7.495 9 8 C9 8.33 9 8.66 9 9 C7.02 9.33 5.04 9.66 3 10 C1 7 1 7 1.375 4.8125 C1.58125 4.214375 1.7875 3.61625 2 3 C0.68 2.67 -0.64 2.34 -2 2 C-1.34 1.34 -0.68 0.68 0 0 Z " fill="#D0B731" transform="translate(72,94)"/>
<path d="M0 0 C3.125 0.375 3.125 0.375 6 1 C6.33 1.99 6.66 2.98 7 4 C9.01508358 4.73323796 9.01508358 4.73323796 11 5 C11 5.66 11 6.32 11 7 C10.01 7.495 10.01 7.495 9 8 C9 8.33 9 8.66 9 9 C7.02 9.33 5.04 9.66 3 10 C1 7 1 7 1.375 4.8125 C1.58125 4.214375 1.7875 3.61625 2 3 C0.68 2.67 -0.64 2.34 -2 2 C-1.34 1.34 -0.68 0.68 0 0 Z " fill="#D0B731" transform="translate(37,81)"/>
<path d="M0 0 C3.125 0.375 3.125 0.375 6 1 C6.33 1.99 6.66 2.98 7 4 C9.01508358 4.73323796 9.01508358 4.73323796 11 5 C11 5.66 11 6.32 11 7 C10.01 7.495 10.01 7.495 9 8 C9 8.33 9 8.66 9 9 C7.02 9.33 5.04 9.66 3 10 C1 7 1 7 1.375 4.8125 C1.58125 4.214375 1.7875 3.61625 2 3 C0.68 2.67 -0.64 2.34 -2 2 C-1.34 1.34 -0.68 0.68 0 0 Z " fill="#D0B731" transform="translate(59,65)"/>
<path d="M0 0 C0.99 0.33 1.98 0.66 3 1 C2.773125 1.515625 2.54625 2.03125 2.3125 2.5625 C1.83224156 6.30851584 3.27135194 8.72791618 5 12 C5.99 12.33 6.98 12.66 8 13 C8 12.34 8 11.68 8 11 C8.99 11 9.98 11 11 11 C11.33 11.99 11.66 12.98 12 14 C10.35 14 8.7 14 7 14 C7.33 15.32 7.66 16.64 8 18 C4.54074837 16.7508258 1.85306797 15.32472205 -1 13 C-0.67 12.34 -0.34 11.68 0 11 C0.66 11.33 1.32 11.66 2 12 C1.67 11.319375 1.34 10.63875 1 9.9375 C-0.17307315 6.49159762 -0.14180493 3.61602578 0 0 Z " fill="#D7BC2C" transform="translate(47,111)"/>
<path d="M0 0 C0.99 0.33 1.98 0.66 3 1 C2.773125 1.515625 2.54625 2.03125 2.3125 2.5625 C1.83224156 6.30851584 3.27135194 8.72791618 5 12 C5.99 12.33 6.98 12.66 8 13 C8 12.34 8 11.68 8 11 C8.99 11 9.98 11 11 11 C11.33 11.99 11.66 12.98 12 14 C10.35 14 8.7 14 7 14 C7.33 15.32 7.66 16.64 8 18 C4.54074837 16.7508258 1.85306797 15.32472205 -1 13 C-0.67 12.34 -0.34 11.68 0 11 C0.66 11.33 1.32 11.66 2 12 C1.67 11.319375 1.34 10.63875 1 9.9375 C-0.17307315 6.49159762 -0.14180493 3.61602578 0 0 Z " fill="#D7BC2C" transform="translate(12,99)"/>
<path d="M0 0 C0.99 0.33 1.98 0.66 3 1 C2.773125 1.515625 2.54625 2.03125 2.3125 2.5625 C1.83224156 6.30851584 3.27135194 8.72791618 5 12 C5.99 12.33 6.98 12.66 8 13 C8 12.34 8 11.68 8 11 C8.99 11 9.98 11 11 11 C11.33 11.99 11.66 12.98 12 14 C10.35 14 8.7 14 7 14 C7.33 15.32 7.66 16.64 8 18 C4.54074837 16.7508258 1.85306797 15.32472205 -1 13 C-0.67 12.34 -0.34 11.68 0 11 C0.66 11.33 1.32 11.66 2 12 C1.67 11.319375 1.34 10.63875 1 9.9375 C-0.17307315 6.49159762 -0.14180493 3.61602578 0 0 Z " fill="#D7BC2C" transform="translate(63,94)"/>
<path d="M0 0 C0.99 0.33 1.98 0.66 3 1 C2.773125 1.515625 2.54625 2.03125 2.3125 2.5625 C1.83224156 6.30851584 3.27135194 8.72791618 5 12 C5.99 12.33 6.98 12.66 8 13 C8 12.34 8 11.68 8 11 C8.99 11 9.98 11 11 11 C11.33 11.99 11.66 12.98 12 14 C10.35 14 8.7 14 7 14 C7.33 15.32 7.66 16.64 8 18 C4.54074837 16.7508258 1.85306797 15.32472205 -1 13 C-0.67 12.34 -0.34 11.68 0 11 C0.66 11.33 1.32 11.66 2 12 C1.67 11.319375 1.34 10.63875 1 9.9375 C-0.17307315 6.49159762 -0.14180493 3.61602578 0 0 Z " fill="#D7BC2C" transform="translate(28,81)"/>
<path d="M0 0 C0.99 0.33 1.98 0.66 3 1 C2.773125 1.515625 2.54625 2.03125 2.3125 2.5625 C1.83224156 6.30851584 3.27135194 8.72791618 5 12 C5.99 12.33 6.98 12.66 8 13 C8 12.34 8 11.68 8 11 C8.99 11 9.98 11 11 11 C11.33 11.99 11.66 12.98 12 14 C10.35 14 8.7 14 7 14 C7.33 15.32 7.66 16.64 8 18 C4.54074837 16.7508258 1.85306797 15.32472205 -1 13 C-0.67 12.34 -0.34 11.68 0 11 C0.66 11.33 1.32 11.66 2 12 C1.67 11.319375 1.34 10.63875 1 9.9375 C-0.17307315 6.49159762 -0.14180493 3.61602578 0 0 Z " fill="#D7BC2C" transform="translate(50,65)"/>
<path d="M0 0 C1.02486226 2.04972452 2.03441521 4.08030215 2.9375 6.1875 C3.93434552 8.34395107 3.93434552 8.34395107 7 9 C7 10.32 7 11.64 7 13 C4.6875 12.9375 4.6875 12.9375 2 12 C-0.03797068 8.46751749 -1.12326143 6.15865746 -0.6875 2.0625 C-0.460625 1.381875 -0.23375 0.70125 0 0 Z " fill="#F2D127" transform="translate(42,110)"/>
<path d="M0 0 C1.02486226 2.04972452 2.03441521 4.08030215 2.9375 6.1875 C3.93434552 8.34395107 3.93434552 8.34395107 7 9 C7 10.32 7 11.64 7 13 C4.6875 12.9375 4.6875 12.9375 2 12 C-0.03797068 8.46751749 -1.12326143 6.15865746 -0.6875 2.0625 C-0.460625 1.381875 -0.23375 0.70125 0 0 Z " fill="#F2D127" transform="translate(7,98)"/>
<path d="M0 0 C1.02486226 2.04972452 2.03441521 4.08030215 2.9375 6.1875 C3.93434552 8.34395107 3.93434552 8.34395107 7 9 C7 10.32 7 11.64 7 13 C4.6875 12.9375 4.6875 12.9375 2 12 C-0.03797068 8.46751749 -1.12326143 6.15865746 -0.6875 2.0625 C-0.460625 1.381875 -0.23375 0.70125 0 0 Z " fill="#F2D127" transform="translate(58,93)"/>
<path d="M0 0 C1.02486226 2.04972452 2.03441521 4.08030215 2.9375 6.1875 C3.93434552 8.34395107 3.93434552 8.34395107 7 9 C7 10.32 7 11.64 7 13 C4.6875 12.9375 4.6875 12.9375 2 12 C-0.03797068 8.46751749 -1.12326143 6.15865746 -0.6875 2.0625 C-0.460625 1.381875 -0.23375 0.70125 0 0 Z " fill="#F2D127" transform="translate(23,80)"/>
<path d="M0 0 C1.02486226 2.04972452 2.03441521 4.08030215 2.9375 6.1875 C3.93434552 8.34395107 3.93434552 8.34395107 7 9 C7 10.32 7 11.64 7 13 C4.6875 12.9375 4.6875 12.9375 2 12 C-0.03797068 8.46751749 -1.12326143 6.15865746 -0.6875 2.0625 C-0.460625 1.381875 -0.23375 0.70125 0 0 Z " fill="#F2D127" transform="translate(45,64)"/>
<path d="M0 0 C1.65 0 3.3 0 5 0 C5 0.66 5 1.32 5 2 C5.66 2 6.32 2 7 2 C7 2.66 7 3.32 7 4 C5.68 4 4.36 4 3 4 C3.33 4.66 3.66 5.32 4 6 C2.35 5.67 0.7 5.34 -1 5 C-0.67 3.35 -0.34 1.7 0 0 Z " fill="#60603C" transform="translate(60,120)"/>
<path d="M0 0 C1.65 0 3.3 0 5 0 C5 0.66 5 1.32 5 2 C5.66 2 6.32 2 7 2 C7 2.66 7 3.32 7 4 C5.68 4 4.36 4 3 4 C3.33 4.66 3.66 5.32 4 6 C2.35 5.67 0.7 5.34 -1 5 C-0.67 3.35 -0.34 1.7 0 0 Z " fill="#60603C" transform="translate(25,108)"/>
<path d="M0 0 C1.65 0 3.3 0 5 0 C5 0.66 5 1.32 5 2 C5.66 2 6.32 2 7 2 C7 2.66 7 3.32 7 4 C5.68 4 4.36 4 3 4 C3.33 4.66 3.66 5.32 4 6 C2.35 5.67 0.7 5.34 -1 5 C-0.67 3.35 -0.34 1.7 0 0 Z " fill="#60603C" transform="translate(76,103)"/>
<path d="M0 0 C1.65 0 3.3 0 5 0 C5 0.66 5 1.32 5 2 C5.66 2 6.32 2 7 2 C7 2.66 7 3.32 7 4 C5.68 4 4.36 4 3 4 C3.33 4.66 3.66 5.32 4 6 C2.35 5.67 0.7 5.34 -1 5 C-0.67 3.35 -0.34 1.7 0 0 Z " fill="#60603C" transform="translate(41,90)"/>
<path d="M0 0 C1.65 0 3.3 0 5 0 C5 0.66 5 1.32 5 2 C5.66 2 6.32 2 7 2 C7 2.66 7 3.32 7 4 C5.68 4 4.36 4 3 4 C3.33 4.66 3.66 5.32 4 6 C2.35 5.67 0.7 5.34 -1 5 C-0.67 3.35 -0.34 1.7 0 0 Z " fill="#60603C" transform="translate(63,74)"/>
<path d="M0 0 C2.475 0.99 2.475 0.99 5 2 C5 2.66 5 3.32 5 4 C4.01 4.495 4.01 4.495 3 5 C3 5.33 3 5.66 3 6 C1.02 6.33 -0.96 6.66 -3 7 C-3.33 6.01 -3.66 5.02 -4 4 C-3.01 3.67 -2.02 3.34 -1 3 C-0.67 2.01 -0.34 1.02 0 0 Z " fill="#AE9D35" transform="translate(62,114)"/>
<path d="M0 0 C2.475 0.99 2.475 0.99 5 2 C5 2.66 5 3.32 5 4 C4.01 4.495 4.01 4.495 3 5 C3 5.33 3 5.66 3 6 C1.02 6.33 -0.96 6.66 -3 7 C-3.33 6.01 -3.66 5.02 -4 4 C-3.01 3.67 -2.02 3.34 -1 3 C-0.67 2.01 -0.34 1.02 0 0 Z " fill="#AE9D35" transform="translate(27,102)"/>
<path d="M0 0 C2.475 0.99 2.475 0.99 5 2 C5 2.66 5 3.32 5 4 C4.01 4.495 4.01 4.495 3 5 C3 5.33 3 5.66 3 6 C1.02 6.33 -0.96 6.66 -3 7 C-3.33 6.01 -3.66 5.02 -4 4 C-3.01 3.67 -2.02 3.34 -1 3 C-0.67 2.01 -0.34 1.02 0 0 Z " fill="#AE9D35" transform="translate(78,97)"/>
<path d="M0 0 C2.475 0.99 2.475 0.99 5 2 C5 2.66 5 3.32 5 4 C4.01 4.495 4.01 4.495 3 5 C3 5.33 3 5.66 3 6 C1.02 6.33 -0.96 6.66 -3 7 C-3.33 6.01 -3.66 5.02 -4 4 C-3.01 3.67 -2.02 3.34 -1 3 C-0.67 2.01 -0.34 1.02 0 0 Z " fill="#AE9D35" transform="translate(43,84)"/>
<path d="M0 0 C2.475 0.99 2.475 0.99 5 2 C5 2.66 5 3.32 5 4 C4.01 4.495 4.01 4.495 3 5 C3 5.33 3 5.66 3 6 C1.02 6.33 -0.96 6.66 -3 7 C-3.33 6.01 -3.66 5.02 -4 4 C-3.01 3.67 -2.02 3.34 -1 3 C-0.67 2.01 -0.34 1.02 0 0 Z " fill="#AE9D35" transform="translate(65,68)"/>
<path d="M0 0 C2 1.75 2 1.75 4 4 C4 5.32 4 6.64 4 8 C4.66 8.33 5.32 8.66 6 9 C3 9 3 9 0.75 7.3125 C-1 5 -1 5 -0.75 2.25 C-0.5025 1.5075 -0.255 0.765 0 0 Z " fill="#1A2A43" transform="translate(55,115)"/>
<path d="M0 0 C2 1.75 2 1.75 4 4 C4 5.32 4 6.64 4 8 C4.66 8.33 5.32 8.66 6 9 C3 9 3 9 0.75 7.3125 C-1 5 -1 5 -0.75 2.25 C-0.5025 1.5075 -0.255 0.765 0 0 Z " fill="#1A2A43" transform="translate(20,103)"/>
<path d="M0 0 C2 1.75 2 1.75 4 4 C4 5.32 4 6.64 4 8 C4.66 8.33 5.32 8.66 6 9 C3 9 3 9 0.75 7.3125 C-1 5 -1 5 -0.75 2.25 C-0.5025 1.5075 -0.255 0.765 0 0 Z " fill="#1A2A43" transform="translate(71,98)"/>
<path d="M0 0 C2 1.75 2 1.75 4 4 C4 5.32 4 6.64 4 8 C4.66 8.33 5.32 8.66 6 9 C3 9 3 9 0.75 7.3125 C-1 5 -1 5 -0.75 2.25 C-0.5025 1.5075 -0.255 0.765 0 0 Z " fill="#1A2A43" transform="translate(36,85)"/>
<path d="M0 0 C2 1.75 2 1.75 4 4 C4 5.32 4 6.64 4 8 C4.66 8.33 5.32 8.66 6 9 C3 9 3 9 0.75 7.3125 C-1 5 -1 5 -0.75 2.25 C-0.5025 1.5075 -0.255 0.765 0 0 Z " fill="#1A2A43" transform="translate(58,69)"/>
<path d="M0 0 C0.66 0 1.32 0 2 0 C5.07692308 5.41538462 5.07692308 5.41538462 4.6875 8.375 C4.460625 8.91125 4.23375 9.4475 4 10 C3.34 10 2.68 10 2 10 C1.855625 8.906875 1.71125 7.81375 1.5625 6.6875 C1.11711896 3.06877013 1.11711896 3.06877013 0 0 Z " fill="#FED919" transform="translate(66,114)"/>
<path d="M0 0 C0.66 0 1.32 0 2 0 C5.07692308 5.41538462 5.07692308 5.41538462 4.6875 8.375 C4.460625 8.91125 4.23375 9.4475 4 10 C3.34 10 2.68 10 2 10 C1.855625 8.906875 1.71125 7.81375 1.5625 6.6875 C1.11711896 3.06877013 1.11711896 3.06877013 0 0 Z " fill="#FED919" transform="translate(31,102)"/>
<path d="M0 0 C0.66 0 1.32 0 2 0 C5.07692308 5.41538462 5.07692308 5.41538462 4.6875 8.375 C4.460625 8.91125 4.23375 9.4475 4 10 C3.34 10 2.68 10 2 10 C1.855625 8.906875 1.71125 7.81375 1.5625 6.6875 C1.11711896 3.06877013 1.11711896 3.06877013 0 0 Z " fill="#FED919" transform="translate(82,97)"/>
<path d="M0 0 C0.66 0 1.32 0 2 0 C5.07692308 5.41538462 5.07692308 5.41538462 4.6875 8.375 C4.460625 8.91125 4.23375 9.4475 4 10 C3.34 10 2.68 10 2 10 C1.855625 8.906875 1.71125 7.81375 1.5625 6.6875 C1.11711896 3.06877013 1.11711896 3.06877013 0 0 Z " fill="#FED919" transform="translate(47,84)"/>
<path d="M0 0 C0.66 0 1.32 0 2 0 C5.07692308 5.41538462 5.07692308 5.41538462 4.6875 8.375 C4.460625 8.91125 4.23375 9.4475 4 10 C3.34 10 2.68 10 2 10 C1.855625 8.906875 1.71125 7.81375 1.5625 6.6875 C1.11711896 3.06877013 1.11711896 3.06877013 0 0 Z " fill="#FED919" transform="translate(69,68)"/>
<path d="M0 0 C0.66 0.33 1.32 0.66 2 1 C2.40729228 3.32156597 2.74438677 5.6568787 3 8 C1.68 7.34 0.36 6.68 -1 6 C-0.67 4.02 -0.34 2.04 0 0 Z " fill="#202E42" transform="translate(51,116)"/>
<path d="M0 0 C0.66 0.33 1.32 0.66 2 1 C2.40729228 3.32156597 2.74438677 5.6568787 3 8 C1.68 7.34 0.36 6.68 -1 6 C-0.67 4.02 -0.34 2.04 0 0 Z " fill="#202E42" transform="translate(16,104)"/>
<path d="M0 0 C0.66 0.33 1.32 0.66 2 1 C2.40729228 3.32156597 2.74438677 5.6568787 3 8 C1.68 7.34 0.36 6.68 -1 6 C-0.67 4.02 -0.34 2.04 0 0 Z " fill="#202E42" transform="translate(67,99)"/>
<path d="M0 0 C0.66 0.33 1.32 0.66 2 1 C2.40729228 3.32156597 2.74438677 5.6568787 3 8 C1.68 7.34 0.36 6.68 -1 6 C-0.67 4.02 -0.34 2.04 0 0 Z " fill="#202E42" transform="translate(32,86)"/>
<path d="M0 0 C0.66 0.33 1.32 0.66 2 1 C2.40729228 3.32156597 2.74438677 5.6568787 3 8 C1.68 7.34 0.36 6.68 -1 6 C-0.67 4.02 -0.34 2.04 0 0 Z " fill="#202E42" transform="translate(54,70)"/>
<path d="M0 0 C0.66 0.99 1.32 1.98 2 3 C1.01 3.66 0.02 4.32 -1 5 C-0.67 3.35 -0.34 1.7 0 0 Z " fill="#FED20F" transform="translate(2,95)"/>
<path d="" fill="#FED20F" transform="translate(0,0)"/>
</svg>
